<?xml version="1.0" encoding="UTF-8" standalone="no"?>
<!-- Created with Inkscape (http://www.inkscape.org/) -->

<svg
   xmlns:dc="http://purl.org/dc/elements/1.1/"
   xmlns:cc="http://creativecommons.org/ns#"
   xmlns:rdf="http://www.w3.org/1999/02/22-rdf-syntax-ns#"
   xmlns:svg="http://www.w3.org/2000/svg"
   xmlns="http://www.w3.org/2000/svg"
   xmlns:sodipodi="http://sodipodi.sourceforge.net/DTD/sodipodi-0.dtd"
   xmlns:inkscape="http://www.inkscape.org/namespaces/inkscape"
   width="256"
   height="256"
   viewBox="0 0 67.733332 67.733335"
   version="1.1"
   id="svg1385"
   inkscape:version="0.92.3 (2405546, 2018-03-11)"
   sodipodi:docname="cctv-cam-offline.svg">
  <defs
     id="defs1379" />
  <sodipodi:namedview
     id="base"
     pagecolor="#ffffff"
     bordercolor="#666666"
     borderopacity="1.0"
     inkscape:pageopacity="0.0"
     inkscape:pageshadow="2"
     inkscape:zoom="0.35"
     inkscape:cx="260.46113"
     inkscape:cy="560"
     inkscape:document-units="mm"
     inkscape:current-layer="layer1"
     showgrid="false"
     units="px"
     inkscape:window-width="1257"
     inkscape:window-height="756"
     inkscape:window-x="1963"
     inkscape:window-y="59"
     inkscape:window-maximized="0" />
  <metadata
     id="metadata1382">
    <rdf:RDF>
      <cc:Work
         rdf:about="">
        <dc:format>image/svg+xml</dc:format>
        <dc:type
           rdf:resource="http://purl.org/dc/dcmitype/StillImage" />
        <dc:title></dc:title>
      </cc:Work>
    </rdf:RDF>
  </metadata>
  <g
     inkscape:label="Layer 1"
     inkscape:groupmode="layer"
     id="layer1"
     transform="translate(0,-229.26665)">
    <path
       style="fill:#d50000;fill-opacity:1;stroke:#d50000;stroke-width:1.56395208;stroke-miterlimit:4;stroke-dasharray:none;stroke-opacity:1"
       d="m 21.592134,295.96355 c -0.244248,-0.13833 -0.560968,-0.45135 -0.70382,-0.6956 -0.238772,-0.40826 -0.255506,-0.53865 -0.207364,-1.61579 0.167585,-3.74949 2.486132,-7.1449 6.069982,-8.8892 0.690468,-0.33605 1.255396,-0.65732 1.255396,-0.71391 0,-0.36158 -4.705797,-20.58076 -4.80409,-20.6415 -0.06715,-0.0415 -1.080429,-0.20688 -2.251714,-0.36749 -2.475288,-0.33943 -2.840789,-0.49677 -3.237547,-1.3937 l -0.230459,-0.521 0.355454,-2.45594 c 0.378421,-2.61463 0.403305,-2.911 0.252264,-3.00435 -0.05286,-0.0327 -2.676637,-0.41107 -5.830617,-0.8409 -3.1539818,-0.42983 -5.9974776,-0.85976 -6.3188823,-0.95539 -1.3234994,-0.3938 -2.7316606,-1.74669 -3.2712949,-3.14288 -0.4870422,-1.26013 -0.4454204,-1.9494 0.5547266,-9.18663 0.4961794,-3.59042 0.9555111,-6.79015 1.0207367,-7.1105 0.2908476,-1.42844 1.600693,-3.12414 2.8939527,-3.74644 0.7772506,-0.37401 1.7977656,-0.63786 2.4505424,-0.63358 0.278636,0.002 11.8114208,1.57532 25.6284078,3.49665 20.17034,2.8048 25.193741,3.53546 25.486822,3.70707 0.985263,0.57693 1.080959,1.37193 0.348813,2.89775 -0.279985,0.58351 -0.429357,1.02059 -0.369306,1.08064 0.05546,0.0555 1.047521,0.24915 2.204587,0.43042 2.253732,0.35309 2.573367,0.47434 3.034561,1.15123 0.129224,0.18965 0.297038,0.5786 0.372925,0.86432 0.125255,0.4716 0.0594,1.0872 -0.714597,6.6796 -0.6248,4.51443 -0.908581,6.2687 -1.062237,6.56653 -0.31063,0.60209 -0.827817,0.90857 -1.533229,0.90857 -0.321546,0 -2.633019,-0.29872 -5.13661,-0.66382 -2.503586,-0.36509 -4.594573,-0.63748 -4.64663,-0.6053 -0.05207,0.0322 -0.300193,0.46898 -0.551411,0.97068 -1.139313,2.27533 -1.449653,2.64014 -2.248576,2.64322 -0.196578,8.4e-4 -3.488326,-0.43115 -7.314985,-0.9598 -4.007665,-0.55365 -6.999217,-0.91952 -7.0558,-0.86294 -0.05403,0.0541 -0.269192,1.2371 -0.478142,2.62903 -0.39886,2.65705 -0.51951,3.03566 -1.106867,3.47347 -0.471368,0.35134 -1.49255,0.3579 -3.879323,0.0249 -2.453116,-0.34227 -2.586798,-0.34671 -2.812591,-0.0935 -0.159277,0.17863 0.0092,0.99544 1.976358,9.58321 1.182761,5.16338 2.185288,9.44427 2.227835,9.51311 0.04255,0.0688 0.308969,0.12518 0.592045,0.12518 0.283076,0 0.59396,0.0682 0.690857,0.15147 0.0969,0.0833 0.52692,0.23747 0.95561,0.3426 0.428691,0.10512 1.232144,0.40899 1.785452,0.67527 3.371429,1.6225 5.615699,4.88295 5.926092,8.60938 0.09752,1.17078 0.0046,1.62698 -0.432311,2.1247 -0.650542,0.74093 -0.149475,0.70652 -10.259004,0.7045 l -9.181923,-0.002 z m 16.122589,-3.79312 c 0,-0.13983 -0.178831,-0.62738 -0.397401,-1.08347 -0.753075,-1.5714 -2.434009,-2.92266 -4.237467,-3.40639 -0.878633,-0.23567 -2.792957,-0.23655 -3.668355,-0.002 -1.76279,0.47296 -3.54367,1.91228 -4.343015,3.51008 -0.689597,1.37843 -1.396363,1.23568 6.118179,1.23568 h 6.528059 z m -6.078168,-31.55485 c 0.03987,-0.0645 0.166897,-0.75497 0.282277,-1.53437 0.172942,-1.16822 0.183867,-1.43671 0.06221,-1.52888 -0.21121,-0.16002 -9.777037,-1.43981 -9.892678,-1.32352 -0.155277,0.15616 -0.501975,2.92724 -0.381276,3.04744 0.05828,0.058 2.265236,0.40456 4.904356,0.77007 2.639121,0.3655 4.833101,0.66949 4.875509,0.67556 0.04241,0.006 0.109731,-0.0417 0.149602,-0.1063 z m 21.205902,-12.28365 c 2.113483,-4.2266 3.842692,-7.75462 3.842692,-7.84003 0,-0.0878 -0.157697,-0.18292 -0.362668,-0.21883 -1.321484,-0.23157 -23.354103,-3.19846 -23.457527,-3.15877 -0.07181,0.0276 -0.216114,0.66036 -0.325669,1.4282 -0.235429,1.65 -0.337844,2.00819 -0.695839,2.43364 -0.350782,0.41688 -1.141846,0.72387 -1.628386,0.63193 -0.525048,-0.0992 -1.059526,-0.45515 -1.316609,-0.87681 -0.280081,-0.45937 -0.282239,-1.08301 -0.0096,-2.76289 0.121736,-0.74997 0.167743,-1.33369 0.1107,-1.40455 -0.05369,-0.0667 -0.60495,-0.18591 -1.225037,-0.26493 -0.948224,-0.12084 -1.149829,-0.11931 -1.268334,0.01 -0.08037,0.0875 -0.344692,1.61549 -0.615272,3.55686 -0.281522,2.01988 -0.554672,3.58915 -0.671904,3.86017 -0.289013,0.66811 -0.804745,0.99403 -1.572936,0.99403 -0.767742,0 -1.322599,-0.3379 -1.690532,-1.0295 l -0.250863,-0.47154 0.527428,-3.70853 c 0.29013,-2.03969 0.490258,-3.74558 0.444774,-3.79086 -0.09194,-0.0915 -12.622511,-1.8811 -13.1442378,-1.87722 -0.5063258,0.004 -1.242982,0.38727 -1.4252948,0.74201 -0.09376,0.18245 -0.5723556,3.29265 -1.1341311,7.37034 l -0.9719108,7.0547 0.2061057,0.42042 c 0.3826714,0.78056 0.5549818,0.83455 4.3475898,1.36229 1.895679,0.26378 11.255251,1.57004 20.799049,2.9028 9.543799,1.33276 17.418366,2.40045 17.499041,2.37267 0.08067,-0.0278 1.875888,-3.50866 3.989367,-7.73527 z m 8.290677,5.00807 c 0.173361,-0.48137 1.156957,-7.80268 1.060686,-7.8951 -0.05308,-0.051 -0.836706,-0.2039 -1.741376,-0.33986 -1.380751,-0.20751 -1.673702,-0.22327 -1.824478,-0.0981 -0.236184,0.19602 -3.863813,7.45156 -3.809106,7.61852 0.02517,0.0768 1.140335,0.29241 2.767583,0.53497 3.368666,0.50213 3.42943,0.50521 3.546691,0.1796 z"
       id="path1955"
       inkscape:connector-curvature="0" />
  </g>
</svg>
