<?xml version="1.0" encoding="UTF-8" standalone="no"?>
<!-- Created with Inkscape (http://www.inkscape.org/) -->

<svg
   xmlns:dc="http://purl.org/dc/elements/1.1/"
   xmlns:cc="http://creativecommons.org/ns#"
   xmlns:rdf="http://www.w3.org/1999/02/22-rdf-syntax-ns#"
   xmlns:svg="http://www.w3.org/2000/svg"
   xmlns="http://www.w3.org/2000/svg"
   xmlns:sodipodi="http://sodipodi.sourceforge.net/DTD/sodipodi-0.dtd"
   xmlns:inkscape="http://www.inkscape.org/namespaces/inkscape"
   width="256"
   height="256"
   viewBox="0 0 67.733332 67.733335"
   version="1.1"
   id="svg1631"
   inkscape:version="0.92.3 (2405546, 2018-03-11)"
   sodipodi:docname="cctv-dome-idle.svg">
  <defs
     id="defs1625" />
  <sodipodi:namedview
     id="base"
     pagecolor="#ffffff"
     bordercolor="#666666"
     borderopacity="1.0"
     inkscape:pageopacity="0.0"
     inkscape:pageshadow="2"
     inkscape:zoom="0.98994949"
     inkscape:cx="59.938141"
     inkscape:cy="274.99253"
     inkscape:document-units="mm"
     inkscape:current-layer="layer1"
     showgrid="false"
     units="px"
     inkscape:window-width="954"
     inkscape:window-height="810"
     inkscape:window-x="2184"
     inkscape:window-y="67"
     inkscape:window-maximized="0" />
  <metadata
     id="metadata1628">
    <rdf:RDF>
      <cc:Work
         rdf:about="">
        <dc:format>image/svg+xml</dc:format>
        <dc:type
           rdf:resource="http://purl.org/dc/dcmitype/StillImage" />
        <dc:title />
      </cc:Work>
    </rdf:RDF>
  </metadata>
  <g
     inkscape:label="Layer 1"
     inkscape:groupmode="layer"
     id="layer1"
     transform="translate(0,-229.26665)">
    <path
       style="fill:#9e9e9e;fill-opacity:1;stroke:#9e9e9e;stroke-width:1.5875;stroke-miterlimit:4;stroke-dasharray:none;stroke-opacity:1"
       d="m 31.00402,288.49413 c -0.514928,-0.0492 -1.4071,-0.16856 -1.982611,-0.2651 -0.575506,-0.0966 -1.617877,-0.31941 -2.316389,-0.49526 -0.698507,-0.17586 -1.863289,-0.52693 -2.588405,-0.78017 -0.725113,-0.25325 -1.863607,-0.7082 -2.529987,-1.01099 -0.666371,-0.3028 -1.608117,-0.77439 -2.09275,-1.04797 -0.484641,-0.27358 -1.366553,-0.81635 -1.959806,-1.20615 -0.593253,-0.38979 -1.584558,-1.11077 -2.202902,-1.60215 -0.618337,-0.49138 -1.720074,-1.49136 -2.448303,-2.22215 -0.728229,-0.73081 -1.696675,-1.7996 -2.152104,-2.37511 -0.455433,-0.5755 -1.0021364,-1.29421 -1.214903,-1.5971 -0.2127627,-0.3029 -0.6657201,-1.00288 -1.0065796,-1.55549 -0.3408508,-0.55261 -0.8962681,-1.55614 -1.2342504,-2.23006 -0.3379804,-0.67391 -0.8129983,-1.72351 -1.0555908,-2.33244 -0.2425926,-0.60892 -0.6089868,-1.66235 -0.8142079,-2.34095 -0.2052214,-0.6786 -0.4781213,-1.72012 -0.6064438,-2.31449 -0.1283228,-0.59437 -0.324744,-1.79773 -0.4364927,-2.67414 -0.1117484,-0.8764 -0.2384345,-1.62872 -0.2815258,-1.67181 -0.043091,-0.0431 -0.4669963,-0.10691 -0.9420112,-0.14181 -0.7034644,-0.0517 -0.9340495,-0.11715 -1.2431222,-0.3529 -0.2087022,-0.15918 -0.4616574,-0.46264 -0.5621235,-0.67435 -0.1661542,-0.35015 -0.1799998,-1.17533 -0.153181,-9.12933 l 0.029482,-8.74439 0.2966817,-0.38893 c 0.1631749,-0.2139 0.4680565,-0.47024 0.6775157,-0.56964 0.3502706,-0.16622 2.9018662,-0.18072 31.7939255,-0.18072 28.892047,0 31.443644,0.0145 31.793919,0.18072 0.209452,0.0994 0.514337,0.35574 0.677515,0.56964 l 0.29668,0.38893 0.02946,8.74439 c 0.0268,7.954 0.01299,8.77918 -0.153186,9.12933 -0.100464,0.21171 -0.353418,0.51517 -0.562122,0.67435 -0.309448,0.23603 -0.539533,0.3012 -1.247084,0.35319 -0.477195,0.035 -0.911579,0.11268 -0.965297,0.17248 -0.0537,0.0598 -0.160222,0.6787 -0.236667,1.37538 -0.07648,0.69667 -0.280195,1.95305 -0.452774,2.79199 -0.172576,0.83891 -0.590363,2.35066 -0.92841,3.35941 -0.371098,1.10738 -0.95911,2.5324 -1.48401,3.59642 -0.478155,0.96928 -1.26053,2.35711 -1.738614,3.08406 -0.478075,0.72696 -1.183908,1.71826 -1.568505,2.2029 -0.384593,0.48463 -1.074771,1.29809 -1.533728,1.80768 -0.458946,0.5096 -1.30532,1.34684 -1.880829,1.86056 -0.575506,0.51371 -1.418116,1.21593 -1.872462,1.5605 -0.454347,0.34456 -1.197831,0.87693 -1.652174,1.18303 -0.454348,0.3061 -1.296959,0.82413 -1.872467,1.15118 -0.575506,0.32704 -1.563659,0.83548 -2.195892,1.12987 -0.632236,0.29438 -1.767441,0.75316 -2.522685,1.01952 -0.755242,0.26634 -1.947958,0.62873 -2.650486,0.8053 -0.702524,0.17656 -1.723396,0.39635 -2.268615,0.48841 -0.545216,0.092 -1.536524,0.21833 -2.202902,0.28058 -0.666374,0.0623 -2.029421,0.10648 -3.028981,0.0983 -0.99957,-0.008 -2.238698,-0.0552 -2.753627,-0.10449 z m 5.892755,-3.63695 c 0.605794,-0.0613 1.572317,-0.20625 2.147828,-0.32191 0.575507,-0.11566 1.584087,-0.36448 2.241284,-0.55291 0.65721,-0.18843 1.747642,-0.56443 2.423196,-0.83555 0.675545,-0.27112 1.793532,-0.7895 2.484413,-1.15195 0.69088,-0.36245 1.657398,-0.92129 2.147824,-1.24187 0.490432,-0.32057 1.288207,-0.90027 1.772844,-1.28821 0.48464,-0.38793 1.420153,-1.22661 2.078924,-1.86371 0.658769,-0.63711 1.60625,-1.65402 2.105514,-2.25982 0.499264,-0.60579 1.236521,-1.60376 1.638356,-2.21769 0.401832,-0.61395 1.021447,-1.68471 1.376913,-2.37949 0.355472,-0.69478 0.852295,-1.79008 1.104055,-2.434 0.251758,-0.64391 0.626654,-1.78706 0.833106,-2.54033 0.206445,-0.75328 0.47589,-1.98089 0.598758,-2.72802 0.122876,-0.74714 0.230248,-1.5567 0.23862,-1.79902 0.0082,-0.24231 0.01043,-0.50254 0.0045,-0.57825 -0.0084,-0.10974 -5.310658,-0.13768 -26.115014,-0.13768 -20.80436,0 -26.1065206,0.0279 -26.1150253,0.13768 -0.00581,0.0758 -0.003,0.33594 0.0062,0.57825 0.0092,0.24232 0.092041,0.93624 0.1837903,1.54203 0.09177,0.6058 0.2917798,1.61791 0.4444993,2.24913 0.1527215,0.63121 0.4514559,1.64731 0.6638582,2.25797 0.2124013,0.61066 0.6571167,1.71202 0.9882555,2.44746 0.331144,0.73544 0.917469,1.86229 1.302948,2.5041 0.385478,0.6418 1.063772,1.64841 1.507322,2.23689 0.443552,0.58849 1.376458,1.66186 2.073128,2.38528 0.696667,0.72343 1.737535,1.70951 2.313044,2.19131 0.575506,0.4818 1.517248,1.18976 2.092755,1.57323 0.575506,0.38348 1.616373,0.9957 2.313043,1.36049 0.696667,0.36481 1.81188,0.88162 2.478259,1.14849 0.666379,0.26685 1.73203,0.63864 2.368114,0.82618 0.636091,0.18754 1.652174,0.43983 2.257973,0.56063 0.605798,0.12081 1.597103,0.27278 2.202899,0.3377 0.605795,0.0649 1.448406,0.1314 1.872466,0.14776 0.424055,0.0164 1.241882,0.0135 1.817391,-0.006 0.575506,-0.0199 1.542028,-0.0863 2.147823,-0.14777 z m -3.868148,-5.38031 c -0.310095,-0.0482 -0.888932,-0.19594 -1.28631,-0.32817 -0.397374,-0.13225 -1.110187,-0.49899 -1.584022,-0.81498 -0.611465,-0.4078 -1.030223,-0.79758 -1.442752,-1.34293 -0.319673,-0.42261 -0.702293,-1.0162 -0.85027,-1.3191 -0.147968,-0.3029 -0.344892,-0.84614 -0.437614,-1.2072 -0.09278,-0.36136 -0.168566,-1.1217 -0.168566,-1.69135 0,-0.58655 0.07567,-1.32806 0.174603,-1.71163 0.09604,-0.37224 0.343569,-0.99895 0.550094,-1.39272 0.206524,-0.39377 0.561649,-0.9442 0.789168,-1.22319 0.22752,-0.279 0.711403,-0.7347 1.075297,-1.01268 0.363891,-0.27798 0.933891,-0.62978 1.266663,-0.78175 0.332775,-0.15199 0.900456,-0.35303 1.261521,-0.44675 0.361059,-0.0937 1.081729,-0.17042 1.601498,-0.17042 0.519761,0 1.240432,0.0767 1.601491,0.17042 0.361065,0.0937 0.928746,0.29476 1.26152,0.44675 0.332774,0.15197 0.902773,0.50377 1.266667,0.78175 0.363891,0.27798 0.847779,0.73368 1.075293,1.01268 0.22752,0.27899 0.582645,0.82942 0.789168,1.22319 0.206526,0.39377 0.454067,1.02048 0.550099,1.39272 0.09896,0.38357 0.174603,1.12508 0.174603,1.71163 0,0.56965 -0.07583,1.32999 -0.168573,1.69135 -0.0927,0.36106 -0.289644,0.9043 -0.437611,1.2072 -0.147978,0.3029 -0.530597,0.89649 -0.850271,1.3191 -0.414829,0.54841 -0.831167,0.93506 -1.454265,1.35061 -0.525715,0.35061 -1.204903,0.68677 -1.707247,0.845 -0.458815,0.14451 -1.205951,0.28874 -1.660297,0.32048 -0.454345,0.0318 -1.079802,0.0183 -1.389887,-0.03 z m 2.354069,-3.90385 c 0.287528,-0.14695 0.681325,-0.43268 0.875103,-0.63497 0.193783,-0.2023 0.463112,-0.61563 0.598506,-0.91853 0.177847,-0.39786 0.244986,-0.7554 0.241871,-1.28805 -0.0033,-0.57212 -0.07117,-0.87395 -0.302614,-1.34703 -0.164062,-0.33534 -0.479495,-0.75906 -0.700956,-0.94161 -0.221464,-0.18255 -0.623601,-0.43576 -0.893635,-0.5627 -0.344397,-0.16188 -0.709523,-0.23078 -1.223034,-0.23078 -0.513517,0 -0.878642,0.0689 -1.223037,0.23078 -0.270038,0.12694 -0.672175,0.38015 -0.893635,0.5627 -0.221466,0.18255 -0.540888,0.61442 -0.709829,0.95973 -0.251329,0.5137 -0.305794,0.76859 -0.299609,1.4021 0.0055,0.57392 0.0721,0.90253 0.256969,1.26993 0.137174,0.27261 0.405149,0.66107 0.595503,0.86327 0.190352,0.2022 0.544359,0.47054 0.786675,0.59634 0.242325,0.12578 0.589276,0.26796 0.771014,0.31594 0.181739,0.048 0.615628,0.0654 0.964187,0.0387 0.368926,-0.0282 0.852197,-0.16024 1.156521,-0.31578 z m 27.728571,-24.95931 v -6.44347 l -11.773621,-0.028 c -8.608512,-0.0205 -11.813825,0.005 -11.923189,0.0961 -0.120857,0.10031 -0.149568,0.87495 -0.149568,4.03533 0,3.67256 -0.01297,3.93215 -0.212684,4.25462 -0.116971,0.1889 -0.376189,0.43972 -0.576039,0.55738 -0.215791,0.12705 -0.566456,0.21394 -0.863449,0.21394 -0.296991,0 -0.647662,-0.0869 -0.863454,-0.21394 -0.199844,-0.11766 -0.471455,-0.38741 -0.603577,-0.59944 -0.232293,-0.3728 -0.242033,-0.51634 -0.295291,-4.35072 l -0.05505,-3.96522 -1.747583,-0.0304 c -1.195161,-0.0208 -1.795765,0.01 -1.900001,0.0961 -0.118271,0.0982 -0.152415,0.52481 -0.152415,1.90458 0,1.52152 -0.02949,1.83307 -0.204356,2.15913 -0.120831,0.2253 -0.402201,0.48698 -0.688406,0.64024 -0.375338,0.20098 -0.589366,0.24534 -0.952999,0.19749 -0.257925,-0.0339 -0.591617,-0.14208 -0.74154,-0.24031 -0.149926,-0.0982 -0.384982,-0.35935 -0.522356,-0.58025 -0.226862,-0.36483 -0.254815,-0.57334 -0.304837,-2.27412 l -0.05507,-1.87246 -11.773618,-0.028 c -8.6085206,-0.0205 -11.8138309,0.005 -11.923192,0.0961 -0.1227772,0.10189 -0.1495702,1.2424 -0.1495702,6.36688 0,4.71397 0.032412,6.27515 0.1323793,6.37512 0.1025476,0.10255 6.6863469,0.12613 29.2159419,0.10464 l 29.083566,-0.0277 z"
       id="path2187"
       inkscape:connector-curvature="0" />
  </g>
</svg>
